<svg width="716" height="149" viewBox="0 0 716 149" fill="none" xmlns="http://www.w3.org/2000/svg">
<path d="M15.122 15.3311C30.3554 0.0976798 51.2999 -3.65608 61.9032 6.94729C67.6344 12.6785 69.1688 21.4302 66.9657 30.669C69.3949 25.3931 72.9818 20.191 77.6474 15.5254C92.8808 0.292014 113.826 -3.46175 124.43 7.14162C135.033 17.745 131.279 38.6904 116.046 53.9238C112.029 57.9404 107.615 61.1578 103.099 63.5254C111.441 62.1091 119.196 63.8431 124.43 69.0772C135.033 79.6806 131.279 100.625 116.046 115.858C100.813 131.092 79.868 134.845 69.2646 124.242C63.5961 118.574 62.0309 109.95 64.1288 100.823C61.7006 106.062 58.1314 111.225 53.498 115.858C38.2646 131.092 17.3191 134.846 6.71574 124.242C-3.88748 113.639 -0.133728 92.6943 15.0995 77.461C19.2842 73.2763 23.9003 69.9588 28.6142 67.5664C20.0644 69.1536 12.0862 67.4603 6.7382 62.1123C-3.86516 51.5089 -0.1114 30.5645 15.122 15.3311Z" fill="black"/>
<path d="M643.342 148.951V133.428H652.807C657.957 133.428 660.38 130.853 662.652 124.568L665.605 116.844L634.785 37.3318H655.003L669.694 78.9809C671.663 84.8875 673.632 90.7941 675.449 96.7007C677.267 90.7941 679.16 84.8875 681.204 78.9809L695.82 37.3318H715.811L680.069 130.474C675.298 142.969 667.422 148.951 655.836 148.951H643.342Z" fill="black"/>
<path d="M629.559 37.3317V52.704H613.278V117.298H594.12V52.704H579.732V37.3317H594.12V25.67C594.12 11.8879 602.601 4.4668 618.428 4.4668H629.559V19.8391H622.214C615.702 19.8391 613.278 22.3381 613.278 28.8505V37.3317H629.559Z" fill="black"/>
<path d="M534.221 119.116C510.67 119.116 494.768 102.229 494.768 77.3907C494.768 52.5527 510.67 35.5144 534.221 35.5144C557.771 35.5144 573.674 52.5527 573.674 77.3907C573.674 102.229 557.771 119.116 534.221 119.116ZM534.221 103.137C546.488 103.137 554.288 93.2931 554.288 77.3907C554.288 61.4126 546.412 51.4925 534.221 51.4925C521.953 51.4925 514.078 61.3369 514.078 77.3907C514.078 93.3688 521.877 103.137 534.221 103.137Z" fill="black"/>
<path d="M451.528 119.191C432.067 119.191 417.603 109.801 416.392 92.6115H435.247C436.08 100.411 441.684 104.879 451.225 104.879C460.464 104.879 466.068 100.866 466.068 95.1862C466.068 90.3397 461.903 87.5379 455.163 86.0991L441.533 83.2972C426.236 80.1168 418.209 72.317 418.209 60.2009C418.209 45.5101 430.855 35.5901 450.392 35.5901C469.778 35.5901 483.03 45.813 483.485 62.2455H465.538C465.386 55.1273 459.555 49.9022 450.847 49.9022C442.441 49.9022 437.292 54.1429 437.292 59.5951C437.292 64.3658 441.23 67.3191 447.893 68.7579L462.281 71.7112C478.108 75.0431 485.453 82.0099 485.453 93.7474C485.453 109.347 471.293 119.191 451.528 119.191Z" fill="black"/>
<path d="M350.359 72.0898V117.298H331.276V37.3317H350.056V49.5992C355.508 40.5879 363.611 35.7415 374.591 35.7415C391.326 35.7415 403.14 46.7974 403.14 67.3191V117.298H383.981V70.3481C383.981 58.6106 378.074 52.4768 367.851 52.4768C357.856 52.4768 350.359 58.4592 350.359 72.0898Z" fill="black"/>
<path d="M271.756 118.585C255.853 118.585 244.116 110.558 244.116 94.5803C244.116 76.4061 259.034 71.9383 275.542 70.1966C290.384 68.5307 295.458 68.3035 295.458 62.8512V62.2454C295.458 55.4301 290.005 50.5837 280.843 50.5837C271.528 50.5837 265.319 55.4301 264.789 62.1697H246.387C247.296 46.2673 260.321 35.7415 281.221 35.7415C302.046 35.7415 314.389 46.1159 314.389 62.7755V117.298H295.609V106.015H295.306C291.52 113.133 284.78 118.585 271.756 118.585ZM276.451 104.425C288.945 104.425 295.533 97.0035 295.533 87.6893V79.0565C293.186 80.571 285.765 81.7827 277.889 82.9943C269.711 84.2059 262.744 87.1592 262.744 94.4288C262.744 100.714 268.121 104.425 276.451 104.425Z" fill="black"/>
<path d="M164.225 117.298V4.4668H183.308V69.7423H183.535L214.658 37.3317H237.603L205.117 71.8626L239.572 117.298H216.779L190.578 83.07L183.308 90.5669V117.298H164.225Z" fill="black"/>
</svg>
